#!OML:ASF G:\JayActor3\Patient Classification 1\Patient 1\Session 2\male.ASF
:FULLY-SPECIFIED
:DEGREES
3382
root 37.7516 16.3959 -5.20462 3002.75 79.0376 125.158
lowerback -0.897829 -0.815122 -6.4757
upperback 0.130239 -1.00904 0.153412
thorax 0.753674 -0.529218 3.77348
lowerneck -3.04087 13.409 9.92907
upperneck 11.7001 17.8202 -2.52448
head 5.13552 9.08274 -1.1872
rclavicle -8.39865e-015 -5.56597e-015
rhumerus -60.5772 -19.158 -51.1793
rradius 12.5471
rwrist 18.9773
rhand -19.2758 -0.232592
rfingers 7.12502
rthumb 7.03892 -30.0956
lclavicle -8.39865e-015 -5.56597e-015
lhumerus -5.49905 -20.7268 71.9004
lradius 73.9125
lwrist 22.767
lhand -14.2896 17.0318
lfingers 7.12502
lthumb 11.8498 46.6765
rfemur -33.5923 8.75034 5.59143
rtibia 25.6866
rfoot -16.0032 0.135098
rtoes 8.09154
lfemur 26.7557 9.18417 -28.6968
ltibia -5.08889e-014
lfoot -3.71405 -7.5747
ltoes -17.7147
3383
root 37.9422 16.3909 -5.21394 3003.55 78.9922 125.946
lowerback -1.05708 -0.865756 -6.26691
upperback 0.0941385 -1.07139 0.29795
thorax 0.811676 -0.561524 3.80247
lowerneck -3.07561 13.4206 9.99345
upperneck 11.9221 17.8598 -2.67782
head 5.23303 9.0995 -1.22405
rclavicle 1.75924e-014 1.98785e-014
rhumerus -61.1794 -19.7111 -49.6244
rradius 12.2575
rwrist 20.1423
rhand -18.8283 -0.417729
rfingers 7.12502
rthumb 7.47084 -30.2658
lclavicle 1.75924e-014 1.98785e-014
lhumerus -5.98661 -20.6278 72.2838
lradius 73.639
lwrist 22.7414
lhand -14.0951 17.121
lfingers 7.12502
lthumb 12.0374 46.7548
rfemur -33.1334 8.69375 5.74307
rtibia 25.9001
rfoot -15.7561 0.320838
rtoes 8.51719
lfemur 27.4118 9.24905 -28.3641
ltibia 7.95139e-014
lfoot -2.9342 -7.7621
ltoes -18.1317
3384
root 38.1351 16.3848 -5.22023 3004.32 78.924 126.708
lowerback -1.22004 -0.919415 -6.11648
upperback 0.0548531 -1.13723 0.442801
thorax 0.869953 -0.595562 3.86419
lowerneck -3.12665 13.4313 10.0648
upperneck 12.1571 17.8939 -2.806
head 5.33549 9.11485 -1.25337
rclavicle -3.47873e-016 -2.22639e-014
rhumerus -61.7198 -20.2022 -48.1838
rradius 11.9821
rwrist 21.336
rhand -18.3893 -0.569282
rfingers 7.12502
rthumb 7.89458 -30.4019
lclavicle -3.47873e-016 -2.22639e-014
lhumerus -6.58009 -20.5658 72.7501
lradius 73.2845
lwrist 22.6096
lhand -13.9904 17.2042
lfingers 7.12502
lthumb 12.1384 46.8321
rfemur -32.6401 8.71192 5.86418
rtibia 26.301
rfoot -15.467 0.441266
rtoes 8.83019
lfemur 28.0694 9.3009 -28.0417
ltibia 6.36111e-015
lfoot -2.03834 -7.87207
ltoes -18.5191
3385
root 38.3304 16.3778 -5.22341 3005.1 78.8181 127.47
lowerback -1.39278 -0.980508 -6.03198
upperback 0.0102136 -1.21166 0.582052
thorax 0.930472 -0.633919 3.95661
lowerneck -3.17822 13.4375 10.1411
upperneck 12.3798 17.919 -2.91569
head 5.43262 9.12666 -1.27935
rclavicle 1.3418e-014 3.65764e-014
rhumerus -62.1919 -20.6216 -46.8992
rradius 11.7299
rwrist 22.5131
rhand -17.9888 -0.672258
rfingers 7.12502
rthumb 8.28117 -30.4899
lclavicle 1.3418e-014 3.65764e-014
lhumerus -7.26464 -20.5494 73.2836
lradius 72.8508
lwrist 22.386
lhand -13.9597 17.2761
lfingers 7.12502
lthumb 12.1679 46.9022
rfemur -32.1382 8.74569 5.96426
rtibia 26.8532
rfoot -15.1433 0.454409
rtoes 8.98798
lfemur 28.7162 9.32675 -27.744
ltibia 6.99722e-014
lfoot -1.01824 -7.87869
ltoes -18.8633
3386
root 38.5275 16.3716 -5.22383 3005.93 78.6616 128.287
lowerback -1.57339 -1.05328 -6.01033
upperback -0.0365827 -1.3001 0.712212
thorax 0.996179 -0.679512 4.0742
lowerneck -3.21286 13.4388 10.2248
upperneck 12.5572 17.937 -3.02813
head 5.51336 9.13475 -1.31088
rclavicle 2.09718e-014 1.11319e-014
rhumerus -62.5756 -20.9507 -45.8378
rradius 11.5162
rwrist 23.5843
rhand -17.6409 -0.738592
rfingers 7.12502
rthumb 8.61685 -30.5427
lclavicle 2.09718e-014 1.11319e-014
lhumerus -8.01622 -20.5854 73.8692
lradius 72.3396
lwrist 22.0995
lhand -13.9921 17.3238
lfingers 7.12502
lthumb 12.1367 46.9518
rfemur -31.6642 8.76485 6.04034
rtibia 27.5103
rfoot -14.7711 0.345715
rtoes 9.22966
lfemur 29.3419 9.31095 -27.4792
ltibia -6.36111e-015
lfoot 0.138146 -7.76474
ltoes -19.218
3387
root 38.726 16.3676 -5.22238 3006.82 78.4525 129.171
lowerback -1.75249 -1.13547 -6.03757
upperback -0.0813648 -1.40004 0.830474
thorax 1.06571 -0.731127 4.20633
lowerneck -3.22555 13.432 10.3115
upperneck 12.6793 17.945 -3.15457
head 5.57405 9.137 -1.35175
rclavicle 1.07344e-014 -1.74931e-014
rhumerus -62.8542 -21.1739 -45.0594
rradius 11.3532
rwrist 24.4505
rhand -17.362 -0.77503
rfingers 7.12502
rthumb 8.88599 -30.5679
lclavicle 1.07344e-014 -1.74931e-014
lhumerus -8.81827 -20.6676 74.5058
lradius 71.7473
lwrist 21.7643
lhand -14.0544 17.3323
lfingers 7.12502
lthumb 12.0767 46.9638
rfemur -31.2441 8.73333 6.09625
rtibia 28.2259
rfoot -14.3072 0.126152
rtoes 9.67255
lfemur 29.9454 9.25133 -27.2484
ltibia -5.40694e-014
lfoot 1.44978 -7.51674
ltoes -19.5625
3388
root 38.9246 16.3681 -5.21984 3007.82 78.2018 130.173
lowerback -1.90649 -1.22495 -6.08579
upperback -0.118416 -1.51053 0.939897
thorax 1.13121 -0.788143 4.34079
lowerneck -3.22562 13.4183 10.3975
upperneck 12.7482 17.9445 -3.29941
head 5.617 9.13358 -1.40183
rclavicle 2.64384e-014 -4.77083e-015
rhumerus -63.008 -21.2863 -44.6037
rradius 11.2442
rwrist 25.0433
rhand -17.1483 -0.791873
rfingers 7.12502
rthumb 9.09229 -30.5759
lclavicle 2.64384e-014 -4.77083e-015
lhumerus -9.65042 -20.7769 75.1924
lradius 71.0707
lwrist 21.3904
lhand -14.1077 17.3195
lfingers 7.12502
lthumb 12.0253 46.9541
rfemur -30.8905 8.67032 6.13516
rtibia 28.9613
rfoot -13.7385 -0.22688
rtoes 10.3534
lfemur 30.527 9.14655 -27.0336
ltibia 5.08889e-014
lfoot 2.94234 -7.11605
ltoes -19.8136
